<svg width="28" height="28" viewBox="0 0 28 28" fill="none" xmlns="http://www.w3.org/2000/svg">
<path d="M19.1298 4.8356C19.3947 4.57068 19.7092 4.36054 20.0553 4.21716C20.4015 4.07379 20.7725 4 21.1471 4C21.5217 4 21.8927 4.07379 22.2389 4.21716C22.585 4.36054 22.8995 4.57068 23.1644 4.8356C23.4293 5.10051 23.6395 5.41501 23.7828 5.76114C23.9262 6.10727 24 6.47825 24 6.8529C24 7.22755 23.9262 7.59853 23.7828 7.94466C23.6395 8.29079 23.4293 8.60529 23.1644 8.87021L9.54759 22.487L4 24L5.51298 18.4524L19.1298 4.8356Z" stroke="#0090AF" stroke-width="2" stroke-linecap="round" stroke-linejoin="round"/>
</svg>
